<?xml version="1.0" encoding="utf-8"?>
<svg xmlns="http://www.w3.org/2000/svg" viewBox="0 0 500 500">
  <g transform="matrix(0.251062, 0, 0, 0.250497, -1.07801, -0.857337)">
    <path d="M 1103.516 527.344 L 1125 537.109 L 1119.141 539.063 Q 1113.281 529.297 1107.422 542.969 L 1101.563 537.109 L 1103.516 527.344 Z " style="fill: #f9f3da; stroke: #f9f3da;"/>
    <path d="M 1185.547 570.313 L 1199.219 580.078 L 1193.359 582.031 L 1185.547 570.313 Z " style="fill: #f9f3da; stroke: #f9f3da;"/>
    <path d="M 1130.859 601.563 Q 1143.88 597.168 1140.625 607.422 Q 1151.367 614.258 1134.766 621.094 L 1125 615.234 L 1136.719 611.328 L 1130.859 601.563 Z " style="fill: #f9f3da; stroke: #f9f3da;"/>
    <path d="M 744.141 656.25 L 755.859 671.875 L 744.141 656.25 Z " style="fill: #f9f3da; stroke: #f9f3da;"/>
    <path d="M 876.953 687.5 L 878.906 699.219 Q 868.49 703.613 871.094 693.359 L 876.953 687.5 Z " style="fill: #f9f3da; stroke: #f9f3da;"/>
    <path d="M 1087.891 687.5 L 1089.844 705.078 L 1082.031 701.172 L 1087.891 687.5 Z " style="fill: #f9f3da; stroke: #f9f3da;"/>
    <path d="M 1111.328 687.5 L 1113.281 699.219 Q 1102.865 703.613 1105.469 693.359 L 1111.328 687.5 Z " style="fill: #f9f3da; stroke: #f9f3da;"/>
    <path d="M 1134.766 687.5 L 1152.344 693.359 L 1144.531 710.938 Q 1130.208 716.211 1136.719 693.359 L 1134.766 687.5 Z " style="fill: #f9f3da; stroke: #f9f3da;"/>
    <path d="M 1023.438 718.75 L 1039.063 724.609 L 1042.969 742.188 L 1025.391 753.906 L 1031.25 744.141 L 1031.25 726.563 Q 1019.531 730.469 1023.438 718.75 Z " style="fill: #f9f3da; stroke: #f9f3da;"/>
    <path d="M 1017.578 753.906 L 1013.672 761.719 L 1017.578 753.906 Z " style="fill: #f9f3da; stroke: #f9f3da;"/>
    <path d="M 634.766 765.625 L 644.531 771.484 L 646.484 765.625 L 654.297 777.344 L 644.531 773.438 L 642.578 781.25 Q 628.418 776.855 634.766 765.625 Z " style="fill: #f9f3da; stroke: #f9f3da;"/>
    <path d="M 1271.484 777.344 L 1267.578 785.156 L 1271.484 777.344 Z " style="fill: #f9f3da; stroke: #f9f3da;"/>
    <path d="M 1435.547 796.875 L 1431.641 804.688 L 1435.547 796.875 Z " style="fill: #f9f3da; stroke: #f9f3da;"/>
    <path d="M 1255.859 804.688 L 1257.813 810.547 L 1244.141 820.313 L 1255.859 804.688 Z " style="fill: #f9f3da; stroke: #f9f3da;"/>
    <path d="M 708.984 808.594 L 716.797 820.313 L 703.125 818.359 L 708.984 808.594 Z " style="fill: #f9f3da; stroke: #f9f3da;"/>
    <path d="M 798.828 812.5 Q 813.379 852.637 845.703 875 L 861.328 882.813 L 863.281 873.047 L 859.375 869.141 L 859.375 835.938 L 871.094 841.797 Q 868.49 852.051 878.906 847.656 L 878.906 855.469 L 886.719 855.469 L 888.672 835.938 L 923.828 871.094 L 943.359 875 L 958.984 847.656 L 970.703 851.563 L 994.141 839.844 L 1000 861.328 L 996.094 871.094 L 1005.859 871.094 L 1044.922 843.75 Q 1051.758 854.492 1076.172 847.656 L 1082.031 845.703 L 1074.219 878.906 L 1121.094 855.469 L 1123.047 863.281 L 1138.672 847.656 L 1150.391 847.656 L 1158.203 851.563 L 1169.922 835.938 Q 1180.078 841.406 1177.734 859.375 L 1181.641 851.563 L 1199.219 919.922 L 1199.219 986.328 L 1189.453 1011.719 L 1181.641 996.094 L 1167.969 1041.016 L 1146.484 1078.125 L 1138.672 1074.219 L 1119.141 1097.656 L 1105.469 1107.422 L 1113.281 1119.141 L 1099.609 1117.188 L 1087.891 1113.281 L 1060.547 1128.906 L 1052.734 1125 L 1044.922 1125 L 1039.063 1126.953 Q 1048.828 1132.812 1035.156 1138.672 L 1039.063 1150.391 L 1039.063 1158.203 Q 1041.992 1166.992 1033.203 1164.063 L 1027.344 1166.016 Q 1036.133 1161.133 1025.391 1156.25 Q 1004.409 1175.13 960.938 1167.969 L 958.984 1160.156 L 943.359 1164.063 L 933.594 1158.203 L 941.406 1156.25 L 939.453 1148.438 L 927.734 1156.25 L 919.922 1152.344 L 912.109 1152.344 L 900.391 1148.438 L 896.484 1160.156 L 855.469 1142.578 L 861.328 1144.531 L 871.094 1142.578 L 869.141 1132.813 L 863.281 1130.859 L 871.094 1126.953 L 869.141 1121.094 L 875 1119.141 L 824.219 1080.078 L 833.984 1085.938 L 841.797 1082.031 Q 846.68 1090.82 851.563 1080.078 L 837.891 1070.313 L 837.891 1078.125 L 826.172 1062.5 L 822.266 1074.219 L 814.453 1062.5 L 806.641 1078.125 L 789.063 1056.641 Q 774.051 1022.824 773.438 974.609 L 767.578 964.844 L 759.766 980.469 L 753.906 958.984 L 757.813 955.078 L 761.719 904.297 L 777.344 851.563 Q 787.76 847.168 785.156 857.422 L 789.063 857.422 L 792.969 822.266 L 798.828 812.5 Z M 822 973 L 816 979 L 820 986 L 832 992 L 822 973 Z M 1135 1008 L 1121 1025 L 1133 1027 L 1137 1018 L 1135 1008 Z M 1115 1012 L 1109 1023 L 1121 1018 Q 1124 1009 1115 1012 Z M 1057 1117 Q 1058 1132 1066 1119 L 1057 1117 Z M 947 1156 L 947 1160 L 957 1158 L 947 1156 Z " style="fill: #f9f3da; stroke: #f9f3da;"/>
    <path d="M 560.547 835.938 L 572.266 851.563 L 560.547 835.938 Z " style="fill: #f9f3da; stroke: #f9f3da;"/>
    <path d="M 1197.266 843.75 L 1199.219 857.422 L 1195.313 857.422 L 1197.266 843.75 Z " style="fill: #f9f3da; stroke: #f9f3da;"/>
    <path d="M 1212.891 847.656 L 1214.844 853.516 L 1207.031 857.422 L 1212.891 847.656 Z " style="fill: #f9f3da; stroke: #f9f3da;"/>
    <path d="M 1255.859 980.469 L 1257.813 990.234 L 1253.906 990.234 L 1255.859 980.469 Z " style="fill: #f9f3da; stroke: #f9f3da;"/>
    <path d="M 1240.234 1046.875 L 1236.328 1054.688 L 1240.234 1046.875 Z " style="fill: #f9f3da; stroke: #f9f3da;"/>
    <path d="M 1205.078 1097.656 L 1197.266 1109.375 L 1205.078 1097.656 Z " style="fill: #f9f3da; stroke: #f9f3da;"/>
    <path d="M 1181.641 1109.375 L 1191.406 1111.328 L 1181.641 1113.281 L 1181.641 1109.375 Z " style="fill: #f9f3da; stroke: #f9f3da;"/>
    <path d="M 791.016 1121.094 L 798.828 1132.813 L 791.016 1121.094 Z " style="fill: #f9f3da; stroke: #f9f3da;"/>
    <path d="M 1091.797 1234.375 L 1095.703 1242.188 L 1091.797 1234.375 Z " style="fill: #f9f3da; stroke: #f9f3da;"/>
    <path d="M 1056.641 1253.906 L 1066.406 1255.859 L 1056.641 1257.813 L 1056.641 1253.906 Z " style="fill: #f9f3da; stroke: #f9f3da;"/>
    <path d="M 783.203 1265.625 L 808.594 1267.578 L 783.203 1269.531 L 783.203 1265.625 Z " style="fill: #f9f3da; stroke: #f9f3da;"/>
    <path d="M 1173.828 1265.625 L 1169.922 1273.438 L 1173.828 1265.625 Z " style="fill: #f9f3da; stroke: #f9f3da;"/>
    <path d="M 1009.766 1273.438 L 1011.719 1287.109 L 1007.813 1287.109 L 1009.766 1273.438 Z " style="fill: #f9f3da; stroke: #f9f3da;"/>
    <path d="M 779.297 1292.969 L 800.781 1294.922 L 779.297 1296.875 L 779.297 1292.969 Z " style="fill: #f9f3da; stroke: #f9f3da;"/>
    <path d="M 1158.203 1308.594 L 1166.016 1320.313 L 1158.203 1308.594 Z " style="fill: #f9f3da; stroke: #f9f3da;"/>
    <path d="M 826.172 1316.406 L 828.125 1326.172 L 824.219 1326.172 L 826.172 1316.406 Z " style="fill: #f9f3da; stroke: #f9f3da;"/>
    <path d="M 673.828 1328.125 L 677.734 1335.938 L 673.828 1328.125 Z " style="fill: #f9f3da; stroke: #f9f3da;"/>
    <path d="M 935.547 1328.125 L 939.453 1335.938 L 935.547 1328.125 Z " style="fill: #f9f3da; stroke: #f9f3da;"/>
    <path d="M 1177.734 1328.125 L 1181.641 1335.938 L 1177.734 1328.125 Z " style="fill: #f9f3da; stroke: #f9f3da;"/>
    <path d="M 685.547 1335.938 L 695.313 1337.891 L 685.547 1339.844 L 685.547 1335.938 Z " style="fill: #f9f3da; stroke: #f9f3da;"/>
    <path d="M 876.953 1335.938 L 886.719 1337.891 L 876.953 1339.844 L 876.953 1335.938 Z " style="fill: #f9f3da; stroke: #f9f3da;"/>
    <path d="M 958.984 1335.938 L 984.375 1337.891 L 958.984 1339.844 L 958.984 1335.938 Z " style="fill: #f9f3da; stroke: #f9f3da;"/>
    <path d="M 1130.859 1335.938 L 1144.531 1337.891 L 1130.859 1339.844 L 1130.859 1335.938 Z " style="fill: #f9f3da; stroke: #f9f3da;"/>
    <path d="M 1189.453 1335.938 L 1199.219 1337.891 L 1189.453 1339.844 L 1189.453 1335.938 Z " style="fill: #f9f3da; stroke: #f9f3da;"/>
    <path d="M 1232.422 1335.938 L 1242.188 1337.891 L 1232.422 1339.844 L 1232.422 1335.938 Z " style="fill: #f9f3da; stroke: #f9f3da;"/>
    <path d="M 1294.922 1335.938 L 1304.688 1337.891 L 1294.922 1339.844 L 1294.922 1335.938 Z " style="fill: #f9f3da; stroke: #f9f3da;"/>
    <path d="M 1025.391 488.281 L 1035.156 490.234 L 1025.391 492.188 L 1025.391 488.281 Z " style="fill: #fffeff; stroke: #fffeff;"/>
    <path d="M 1044.922 492.188 L 1050.781 505.859 L 1046.875 505.859 L 1044.922 492.188 Z " style="fill: #fffeff; stroke: #fffeff;"/>
    <path d="M 939.453 500 L 935.547 507.813 L 939.453 500 Z " style="fill: #fffeff; stroke: #fffeff;"/>
    <path d="M 1228.516 519.531 L 1238.281 521.484 L 1228.516 523.438 L 1228.516 519.531 Z " style="fill: #fffeff; stroke: #fffeff;"/>
    <path d="M 884.766 527.344 L 906.25 529.297 L 884.766 531.25 L 884.766 527.344 Z " style="fill: #fffeff; stroke: #fffeff;"/>
    <path d="M 736.328 531.25 L 732.422 539.063 L 736.328 531.25 Z " style="fill: #fffeff; stroke: #fffeff;"/>
    <path d="M 1138.672 542.969 L 1142.578 550.781 L 1138.672 542.969 Z " style="fill: #fffeff; stroke: #fffeff;"/>
    <path d="M 830.078 554.688 L 835.938 564.453 L 828.125 568.359 L 828.125 560.547 L 830.078 554.688 Z " style="fill: #fffeff; stroke: #fffeff;"/>
    <path d="M 1208.984 566.406 L 1201.172 578.125 L 1208.984 566.406 Z " style="fill: #fffeff; stroke: #fffeff;"/>
    <path d="M 822.266 570.313 L 818.359 578.125 L 822.266 570.313 Z " style="fill: #fffeff; stroke: #fffeff;"/>
    <path d="M 1263.672 570.313 L 1265.625 591.797 L 1261.719 591.797 L 1263.672 570.313 Z " style="fill: #fffeff; stroke: #fffeff;"/>
    <path d="M 806.641 582.031 L 798.828 593.75 L 792.969 591.797 L 806.641 582.031 Z " style="fill: #fffeff; stroke: #fffeff;"/>
    <path d="M 1248.047 636.719 L 1244.141 644.531 L 1248.047 636.719 Z " style="fill: #fffeff; stroke: #fffeff;"/>
    <path d="M 736.328 648.438 L 740.234 656.25 L 736.328 648.438 Z " style="fill: #fffeff; stroke: #fffeff;"/>
    <path d="M 1240.234 648.438 L 1236.328 656.25 L 1240.234 648.438 Z " style="fill: #fffeff; stroke: #fffeff;"/>
    <path d="M 1236.328 664.063 L 1238.281 673.828 L 1234.375 681.641 L 1236.328 687.5 L 1230.469 677.734 L 1236.328 664.063 Z " style="fill: #fffeff; stroke: #fffeff;"/>
    <path d="M 873.047 687.5 L 869.141 695.313 L 873.047 687.5 Z " style="fill: #fffeff; stroke: #fffeff;"/>
    <path d="M 1107.422 687.5 L 1103.516 695.313 L 1107.422 687.5 Z " style="fill: #fffeff; stroke: #fffeff;"/>
    <path d="M 740.234 699.219 L 742.188 708.984 L 738.281 708.984 L 740.234 699.219 Z " style="fill: #fffeff; stroke: #fffeff;"/>
    <path d="M 1248.047 714.844 L 1250 724.609 L 1246.094 724.609 L 1248.047 714.844 Z " style="fill: #fffeff; stroke: #fffeff;"/>
    <path d="M 541.016 726.563 L 550.781 728.516 L 541.016 730.469 L 541.016 726.563 Z " style="fill: #fffeff; stroke: #fffeff;"/>
    <path d="M 1384.766 726.563 L 1390.625 736.328 L 1382.813 738.281 L 1384.766 726.563 Z " style="fill: #fffeff; stroke: #fffeff;"/>
    <path d="M 1412.109 726.563 L 1421.875 728.516 L 1412.109 730.469 L 1412.109 726.563 Z " style="fill: #fffeff; stroke: #fffeff;"/>
    <path d="M 1427.734 734.375 L 1429.688 748.047 L 1425.781 748.047 L 1427.734 734.375 Z " style="fill: #fffeff; stroke: #fffeff;"/>
    <path d="M 1333.984 746.094 L 1343.75 748.047 L 1322.266 753.906 L 1322.266 750 L 1333.984 746.094 Z " style="fill: #fffeff; stroke: #fffeff;"/>
    <path d="M 642.578 750 L 646.484 757.813 L 642.578 750 Z " style="fill: #fffeff; stroke: #fffeff;"/>
    <path d="M 654.297 757.813 L 658.203 765.625 L 654.297 757.813 Z " style="fill: #fffeff; stroke: #fffeff;"/>
    <path d="M 1306.641 757.813 L 1302.734 765.625 L 1306.641 757.813 Z " style="fill: #fffeff; stroke: #fffeff;"/>
    <path d="M 666.016 765.625 L 669.922 773.438 L 666.016 765.625 Z " style="fill: #fffeff; stroke: #fffeff;"/>
    <path d="M 685.547 773.438 L 693.359 785.156 L 685.547 773.438 Z " style="fill: #fffeff; stroke: #fffeff;"/>
    <path d="M 1255.859 781.25 L 1257.813 791.016 L 1250 787.109 L 1255.859 781.25 Z " style="fill: #fffeff; stroke: #fffeff;"/>
    <path d="M 712.891 796.875 L 720.703 808.594 L 712.891 796.875 Z " style="fill: #fffeff; stroke: #fffeff;"/>
    <path d="M 1427.734 804.688 L 1423.828 812.5 L 1427.734 804.688 Z " style="fill: #fffeff; stroke: #fffeff;"/>
    <path d="M 552.734 828.125 L 556.641 835.938 L 552.734 828.125 Z " style="fill: #fffeff; stroke: #fffeff;"/>
    <path d="M 1404.297 835.938 L 1392.578 851.563 L 1404.297 835.938 Z " style="fill: #fffeff; stroke: #fffeff;"/>
    <path d="M 576.172 851.563 L 583.984 863.281 L 576.172 851.563 Z " style="fill: #fffeff; stroke: #fffeff;"/>
    <path d="M 587.891 867.188 L 603.516 886.719 L 587.891 867.188 Z " style="fill: #fffeff; stroke: #fffeff;"/>
    <path d="M 1369.141 871.094 L 1353.516 890.625 L 1369.141 871.094 Z " style="fill: #fffeff; stroke: #fffeff;"/>
    <path d="M 615.234 890.625 L 619.141 898.438 L 615.234 890.625 Z " style="fill: #fffeff; stroke: #fffeff;"/>
    <path d="M 626.953 898.438 L 630.859 906.25 L 626.953 898.438 Z " style="fill: #fffeff; stroke: #fffeff;"/>
    <path d="M 701.172 933.594 L 703.125 943.359 L 699.219 943.359 L 701.172 933.594 Z " style="fill: #fffeff; stroke: #fffeff;"/>
    <path d="M 1263.672 949.219 L 1265.625 962.891 L 1261.719 962.891 L 1263.672 949.219 Z " style="fill: #fffeff; stroke: #fffeff;"/>
    <path d="M 701.172 960.938 L 707.031 970.703 L 699.219 966.797 L 701.172 960.938 Z " style="fill: #fffeff; stroke: #fffeff;"/>
    <path d="M 1255.859 968.75 L 1257.813 978.516 L 1253.906 978.516 L 1255.859 968.75 Z " style="fill: #fffeff; stroke: #fffeff;"/>
    <path d="M 1255.859 992.188 L 1257.813 1005.859 L 1253.906 1005.859 L 1255.859 992.188 Z " style="fill: #fffeff; stroke: #fffeff;"/>
    <path d="M 705.078 1003.906 L 707.031 1013.672 L 703.125 1013.672 L 705.078 1003.906 Z " style="fill: #fffeff; stroke: #fffeff;"/>
    <path d="M 744.141 1089.844 L 748.047 1097.656 L 744.141 1089.844 Z " style="fill: #fffeff; stroke: #fffeff;"/>
    <path d="M 1212.891 1089.844 L 1208.984 1097.656 L 1212.891 1089.844 Z " style="fill: #fffeff; stroke: #fffeff;"/>
    <path d="M 1177.734 1117.188 L 1162.109 1136.719 L 1177.734 1117.188 Z " style="fill: #fffeff; stroke: #fffeff;"/>
    <path d="M 802.734 1132.813 L 806.641 1140.625 L 802.734 1132.813 Z " style="fill: #fffeff; stroke: #fffeff;"/>
    <path d="M 1142.578 1136.719 L 1156.25 1138.672 Q 1139.648 1137.695 1134.766 1148.438 L 1142.578 1136.719 Z " style="fill: #fffeff; stroke: #fffeff;"/>
    <path d="M 1123.047 1152.344 L 1119.141 1160.156 L 1123.047 1152.344 Z " style="fill: #fffeff; stroke: #fffeff;"/>
    <path d="M 1060.547 1171.875 L 1074.219 1173.828 L 1060.547 1175.781 L 1060.547 1171.875 Z " style="fill: #fffeff; stroke: #fffeff;"/>
    <path d="M 1017.578 1175.781 L 1031.25 1177.734 L 1017.578 1179.688 L 1017.578 1175.781 Z " style="fill: #fffeff; stroke: #fffeff;"/>
    <path d="M 822.266 1226.563 Q 833.984 1228.516 832.031 1244.141 L 824.219 1248.047 L 828.125 1240.234 L 822.266 1226.563 Z " style="fill: #fffeff; stroke: #fffeff;"/>
    <path d="M 939.453 1226.563 L 935.547 1234.375 L 939.453 1226.563 Z " style="fill: #fffeff; stroke: #fffeff;"/>
    <path d="M 1126.953 1226.563 L 1123.047 1234.375 L 1126.953 1226.563 Z " style="fill: #fffeff; stroke: #fffeff;"/>
    <path d="M 1251.953 1226.563 L 1248.047 1234.375 L 1251.953 1226.563 Z " style="fill: #fffeff; stroke: #fffeff;"/>
    <path d="M 1033.203 1230.469 L 1029.297 1238.281 L 1033.203 1230.469 Z " style="fill: #fffeff; stroke: #fffeff;"/>
    <path d="M 966.797 1238.281 L 968.75 1306.641 L 964.844 1306.641 L 966.797 1238.281 Z " style="fill: #fffeff; stroke: #fffeff;"/>
    <path d="M 1021.484 1242.188 L 1017.578 1250 L 1021.484 1242.188 Z " style="fill: #fffeff; stroke: #fffeff;"/>
    <path d="M 779.297 1253.906 L 816.406 1255.859 L 779.297 1257.813 L 779.297 1253.906 Z " style="fill: #fffeff; stroke: #fffeff;"/>
    <path d="M 1261.719 1265.625 L 1269.531 1267.578 L 1261.719 1271.484 L 1261.719 1265.625 Z " style="fill: #fffeff; stroke: #fffeff;"/>
    <path d="M 912.109 1269.531 L 908.203 1277.344 L 912.109 1269.531 Z " style="fill: #fffeff; stroke: #fffeff;"/>
    <path d="M 818.359 1273.438 L 820.313 1283.203 L 816.406 1283.203 L 818.359 1273.438 Z " style="fill: #fffeff; stroke: #fffeff;"/>
    <path d="M 849.609 1273.438 L 853.516 1281.25 L 849.609 1273.438 Z " style="fill: #fffeff; stroke: #fffeff;"/>
    <path d="M 900.391 1285.156 L 896.484 1292.969 L 900.391 1285.156 Z " style="fill: #fffeff; stroke: #fffeff;"/>
    <path d="M 802.734 1292.969 L 812.5 1294.922 L 802.734 1296.875 L 802.734 1292.969 Z " style="fill: #fffeff; stroke: #fffeff;"/>
    <path d="M 822.266 1308.594 L 826.172 1316.406 L 822.266 1308.594 Z " style="fill: #fffeff; stroke: #fffeff;"/>
    <path d="M 1251.953 1312.5 Q 1278.32 1305.664 1285.156 1318.359 L 1283.203 1324.219 L 1281.25 1316.406 L 1251.953 1316.406 L 1251.953 1312.5 Z " style="fill: #fffeff; stroke: #fffeff;"/>
    <path d="M 1021.484 1320.313 L 1025.391 1328.125 L 1021.484 1320.313 Z " style="fill: #fffeff; stroke: #fffeff;"/>
    <path d="M 1210.938 1320.313 L 1218.75 1322.266 L 1210.938 1326.172 L 1210.938 1320.313 Z " style="fill: #fffeff; stroke: #fffeff;"/>
    <path d="M 1318.359 1320.313 L 1320.313 1330.078 L 1312.5 1333.984 L 1318.359 1320.313 Z " style="fill: #fffeff; stroke: #fffeff;"/>
    <path d="M 708.984 1328.125 L 705.078 1335.938 L 708.984 1328.125 Z " style="fill: #fffeff; stroke: #fffeff;"/>
    <path d="M 748.047 1328.125 L 751.953 1335.938 L 748.047 1328.125 Z " style="fill: #fffeff; stroke: #fffeff;"/>
    <path d="M 865.234 1332.031 L 875 1337.891 L 869.141 1339.844 L 865.234 1332.031 Z " style="fill: #fffeff; stroke: #fffeff;"/>
    <path d="M 892.578 1332.031 L 888.672 1339.844 L 892.578 1332.031 Z " style="fill: #fffeff; stroke: #fffeff;"/>
    <path d="M 1123.047 1332.031 L 1126.953 1339.844 L 1123.047 1332.031 Z " style="fill: #fffeff; stroke: #fffeff;"/>
    <path d="M 1150.391 1332.031 L 1146.484 1339.844 L 1150.391 1332.031 Z " style="fill: #fffeff; stroke: #fffeff;"/>
    <path d="M 1287.109 1332.031 L 1291.016 1339.844 L 1287.109 1332.031 Z " style="fill: #fffeff; stroke: #fffeff;"/>
    <path d="M 759.766 1335.938 L 820.313 1337.891 L 759.766 1339.844 L 759.766 1335.938 Z " style="fill: #fffeff; stroke: #fffeff;"/>
    <path d="M 943.359 1335.938 L 957.031 1337.891 L 943.359 1339.844 L 943.359 1335.938 Z " style="fill: #fffeff; stroke: #fffeff;"/>
    <path d="M 986.328 1335.938 L 1003.906 1337.891 L 986.328 1339.844 L 986.328 1335.938 Z " style="fill: #fffeff; stroke: #fffeff;"/>
    <path d="M 0 0 L 2000 0 L 2000 2000 L 0 2000 L 0 0 Z M 1025 488 L 986 496 L 959 512 L 957 500 L 939 500 L 922 512 L 914 531 L 904 527 Q 850 525 828 557 L 832 564 L 799 590 L 783 586 Q 760 566 758 531 L 748 527 L 736 531 L 719 561 L 719 615 Q 728 651 754 670 L 738 701 L 742 713 L 719 760 Q 715 779 727 783 L 721 805 L 686 773 L 674 773 L 643 750 L 617 746 L 609 729 L 592 715 L 578 719 L 572 738 L 541 727 Q 529 729 531 744 L 520 750 L 516 760 L 523 775 L 520 795 L 541 813 L 586 869 Q 629 917 699 934 L 703 1014 L 719 1053 Q 716 1062 725 1059 L 742 1092 L 779 1125 L 787 1121 L 822 1148 L 842 1148 Q 869 1168 908 1176 Q 930 1182 936 1172 L 955 1180 L 1006 1180 L 1010 1176 L 1018 1180 L 1045 1172 L 1061 1176 L 1104 1168 L 1143 1141 L 1162 1137 L 1180 1113 L 1197 1109 Q 1221 1092 1230 1061 Q 1228 1052 1236 1055 L 1254 1025 L 1258 971 L 1266 963 L 1262 934 L 1303 922 L 1354 891 L 1371 869 L 1393 852 L 1418 818 Q 1415 810 1424 813 L 1441 791 L 1438 775 L 1441 756 L 1430 750 Q 1434 732 1420 727 L 1387 734 L 1383 719 L 1365 715 L 1348 740 L 1307 758 L 1287 773 L 1275 773 L 1260 789 Q 1260 750 1242 729 L 1250 727 L 1234 682 L 1238 674 L 1234 662 L 1258 623 L 1266 592 L 1262 553 L 1254 537 L 1236 520 L 1229 520 L 1219 533 L 1215 561 L 1197 578 L 1162 555 L 1146 551 Q 1137 546 1141 531 Q 1109 507 1047 510 L 1051 498 L 1025 488 Z M 650 1227 L 641 1230 L 641 1248 L 660 1311 L 682 1340 L 705 1336 Q 737 1295 742 1230 L 711 1227 L 703 1264 L 689 1293 L 672 1232 Q 668 1223 650 1227 Z M 756 1227 L 746 1236 L 746 1330 L 760 1340 L 818 1340 Q 832 1336 828 1314 L 822 1309 L 777 1309 L 777 1297 L 811 1297 L 820 1283 Q 822 1268 811 1266 L 779 1266 L 777 1258 L 814 1258 L 830 1246 L 863 1295 L 863 1334 Q 868 1345 889 1340 L 895 1334 L 895 1295 L 930 1248 L 930 1236 Q 923 1221 898 1227 L 887 1252 L 875 1258 L 859 1227 Q 837 1221 830 1234 L 822 1227 L 756 1227 Z M 939 1227 L 934 1232 L 934 1330 L 943 1340 L 1002 1340 Q 1016 1336 1012 1314 L 1006 1309 L 969 1309 L 969 1240 L 965 1232 Q 960 1222 939 1227 Z M 1045 1227 L 1033 1230 Q 1014 1242 1008 1268 Q 1004 1305 1020 1322 L 1045 1340 L 1076 1340 L 1098 1328 L 1109 1303 Q 1117 1262 1102 1244 Q 1090 1219 1045 1227 Z M 1127 1227 L 1121 1232 L 1121 1334 Q 1126 1345 1146 1340 Q 1158 1334 1152 1311 L 1186 1340 Q 1209 1344 1213 1328 Q 1223 1326 1219 1336 L 1229 1340 Q 1247 1343 1250 1330 L 1250 1316 L 1281 1316 L 1291 1340 Q 1314 1343 1320 1330 L 1289 1236 Q 1282 1220 1252 1227 L 1234 1256 L 1219 1320 Q 1207 1324 1211 1313 L 1184 1295 L 1189 1293 L 1207 1271 L 1203 1240 L 1182 1227 L 1127 1227 Z " style="fill: #fff; stroke: #fff;"/>
    <path d="M 1152.344 1253.906 Q 1180.013 1244.531 1171.875 1269.531 L 1152.344 1273.438 L 1152.344 1253.906 Z " style="fill: #fff; stroke: #fff;"/>
    <path d="M 1052.734 1257.813 Q 1070.313 1253.906 1074.219 1263.672 L 1078.125 1291.016 L 1064.453 1308.594 Q 1048.828 1310.547 1046.875 1298.828 L 1042.969 1271.484 L 1052.734 1257.813 Z " style="fill: #fff; stroke: #fff;"/>
    <path d="M 1267.578 1269.531 L 1273.438 1283.203 L 1261.719 1285.156 L 1267.578 1269.531 Z " style="fill: #fff; stroke: #fff;"/>
    <path d="M 1009.766 492.188 L 1019.531 494.141 L 1009.766 496.094 L 1009.766 492.188 Z " style="fill: #dadad4; stroke: #dadad4;"/>
    <path d="M 947.266 500 L 957.031 505.859 L 955.078 519.531 L 953.125 503.906 L 947.266 500 Z " style="fill: #dadad4; stroke: #dadad4;"/>
    <path d="M 1013.672 500 Q 1041.016 494.141 1039.063 505.859 L 1023.438 525.391 L 1033.203 527.344 L 1041.016 527.344 Q 1050 514.844 1076.172 519.531 L 1095.703 523.438 L 1103.516 531.25 L 1111.328 527.344 L 1111.328 531.25 L 1101.563 537.109 L 1111.328 550.781 L 1138.672 554.688 L 1187.5 583.984 L 1175.781 591.797 Q 1172.852 600.586 1181.641 597.656 Q 1216.165 621.726 1226.563 669.922 L 1216.797 664.063 L 1207.031 666.016 L 1234.375 701.172 L 1230.469 708.984 L 1238.281 708.984 L 1236.328 718.75 L 1224.609 710.938 L 1226.563 716.797 L 1250 773.438 L 1236.328 769.531 L 1238.281 775.391 L 1242.188 787.109 L 1240.234 792.969 Q 1250.488 789.714 1246.094 802.734 L 1226.563 816.406 Q 1222.168 826.823 1232.422 824.219 L 1253.906 806.641 L 1244.141 820.313 L 1257.813 810.547 Q 1255.859 791.016 1271.484 789.063 L 1279.297 792.969 L 1318.359 765.625 Q 1324.219 775.391 1330.078 761.719 Q 1338.867 758.789 1335.938 767.578 L 1343.75 763.672 L 1369.141 722.656 Q 1382.161 730.632 1378.906 750 L 1404.297 738.281 L 1417.969 738.281 Q 1420.898 753.255 1408.203 757.813 L 1386.719 750 Q 1382.324 760.417 1392.578 757.813 Q 1410.156 767.578 1412.109 792.969 Q 1416.992 781.25 1433.594 785.156 L 1423.828 800.781 L 1410.156 810.547 Q 1398.437 839.844 1373.047 855.469 L 1347.656 869.141 L 1357.422 871.094 L 1363.281 869.141 Q 1322.061 909.952 1255.859 925.781 L 1250 923.828 L 1253.906 951.172 L 1242.188 947.266 L 1246.094 958.984 L 1246.094 1017.578 L 1232.422 1042.969 L 1228.516 1023.438 L 1222.656 1029.297 L 1218.75 1064.453 L 1193.359 1101.563 L 1189.453 1085.938 L 1154.297 1128.906 L 1156.25 1123.047 L 1154.297 1113.281 L 1132.813 1128.906 L 1119.141 1148.438 L 1113.281 1146.484 Q 1116.211 1155.273 1107.422 1152.344 L 1076.172 1164.063 L 1068.359 1164.063 L 1062.5 1162.109 L 1074.219 1154.297 Q 1077.148 1145.508 1068.359 1148.438 L 1033.203 1167.969 L 1025.391 1156.25 L 1039.063 1164.063 L 1035.156 1154.297 L 1039.063 1146.484 L 1035.156 1138.672 Q 1047.201 1131.836 1041.016 1125 L 1048.828 1128.906 L 1058.594 1123.047 L 1056.641 1117.188 L 1066.406 1119.141 L 1060.547 1128.906 L 1091.797 1113.281 L 1103.516 1121.094 Q 1114.258 1116.211 1105.469 1111.328 L 1115.234 1097.656 L 1132.813 1083.984 L 1138.672 1074.219 L 1146.484 1078.125 L 1167.969 1041.016 L 1181.641 996.094 L 1189.453 1011.719 L 1199.219 986.328 L 1199.219 919.922 L 1181.641 851.563 L 1177.734 859.375 Q 1180.078 841.406 1169.922 835.938 L 1158.203 851.563 L 1138.672 847.656 L 1121.094 861.328 Q 1124.023 852.539 1115.234 855.469 L 1074.219 878.906 L 1082.031 845.703 L 1076.172 847.656 Q 1051.758 854.492 1044.922 843.75 L 1005.859 871.094 L 996.094 871.094 L 1000 857.422 L 994.141 839.844 L 970.703 851.563 L 958.984 847.656 L 943.359 875 L 923.828 871.094 L 888.672 835.938 L 886.719 855.469 L 878.906 855.469 L 878.906 847.656 Q 868.49 852.051 871.094 841.797 L 859.375 835.938 L 863.281 880.859 L 857.422 878.906 Q 830.566 872.559 820.313 849.609 L 798.828 812.5 L 787.109 859.375 L 785.156 851.563 Q 773.438 846.68 777.344 861.328 L 761.719 904.297 L 753.906 966.797 L 759.766 980.469 L 767.578 964.844 L 773.438 974.609 Q 774.051 1022.824 789.063 1056.641 L 806.641 1078.125 L 814.453 1062.5 L 818.359 1070.313 L 824.219 1068.359 L 822.266 1074.219 L 828.125 1076.172 Q 819.336 1081.055 830.078 1085.938 L 837.891 1070.313 L 837.891 1078.125 L 845.703 1074.219 Q 857.422 1080.078 845.703 1085.938 L 837.891 1085.938 L 832.031 1087.891 L 875 1119.141 L 867.188 1123.047 L 869.141 1128.906 L 863.281 1130.859 L 871.094 1134.766 L 869.141 1144.531 L 857.422 1140.625 L 851.563 1142.578 L 849.609 1136.719 L 845.703 1140.625 L 828.125 1126.953 L 826.172 1140.625 L 792.969 1115.234 L 783.203 1097.656 L 781.25 1113.281 L 753.906 1091.797 Q 734.234 1066.547 728.516 1027.344 L 720.703 1039.063 L 710.938 1005.859 L 710.938 974.609 L 714.844 957.031 Q 703.125 961.914 707.031 947.266 L 714.844 923.828 L 708.984 925.781 Q 643.14 913.501 605.469 873.047 L 613.281 869.141 L 587.891 855.469 L 582.031 857.422 L 585.938 853.516 L 558.594 826.172 L 544.922 804.688 L 539.063 806.641 L 541.016 812.5 Q 530.273 807.617 539.063 802.734 L 527.344 791.016 L 527.344 785.156 L 546.875 785.156 L 548.828 792.969 Q 552.037 762.974 574.219 751.953 L 568.359 750 L 552.734 757.813 L 539.063 738.281 L 556.641 738.281 L 585.938 750 Q 580.078 729.004 591.797 722.656 L 623.047 769.531 L 626.953 757.813 L 642.578 781.25 L 644.531 775.391 L 642.578 769.531 L 650.391 773.438 Q 655.273 764.648 660.156 775.391 L 662.109 781.25 L 666.016 777.344 L 681.641 792.969 L 689.453 789.063 L 736.328 832.031 L 738.281 826.172 Q 725.586 821.289 730.469 798.828 L 742.188 765.625 L 726.563 769.531 Q 735.437 726.517 765.625 701.172 L 759.766 699.219 L 750 703.125 Q 762.549 668.408 789.063 642.578 L 783.203 644.531 L 773.438 642.578 L 791.016 621.094 L 816.406 603.516 L 804.688 599.609 Q 824.609 572.656 863.281 564.453 L 839.844 556.641 L 876.953 539.063 L 908.203 539.063 L 916.016 542.969 L 935.547 515.625 L 943.359 511.719 L 945.313 525.391 L 941.406 535.156 L 986.328 507.813 L 1013.672 500 Z M 877 602 L 871 607 L 873 613 L 887 604 L 877 602 Z M 1131 602 L 1125 607 Q 1130 618 1135 609 L 1129 619 L 1135 621 Q 1151 614 1141 607 Q 1144 597 1131 602 Z M 861 676 Q 843 684 848 717 Q 853 731 877 727 L 891 705 L 887 686 Q 881 673 861 676 Z M 1104 676 L 1092 695 L 1088 688 L 1082 697 L 1088 707 Q 1098 704 1094 717 Q 1099 731 1123 727 Q 1139 721 1133 693 L 1137 693 Q 1130 716 1145 711 L 1152 693 L 1131 688 L 1119 676 L 1104 676 Z M 1023 719 Q 1028 740 1014 746 L 996 736 Q 1000 722 988 727 L 984 742 L 971 746 L 961 732 L 953 729 L 957 744 L 971 754 L 990 746 L 1018 758 L 1020 752 Q 1026 735 1033 746 L 1043 742 L 1039 725 L 1023 719 Z M 709 809 L 703 818 L 717 820 L 709 809 Z M 1205 840 L 1203 854 L 1207 854 L 1205 840 Z M 1217 840 L 1211 854 L 1219 850 L 1217 840 Z M 1197 844 L 1195 857 L 1199 857 L 1197 844 Z M 736 977 L 730 990 L 738 994 L 736 977 Z " style="fill: #dadad4; stroke: #dadad4;"/>
    <path d="M 931.641 507.813 L 923.828 519.531 L 931.641 507.813 Z " style="fill: #dadad4; stroke: #dadad4;"/>
    <path d="M 1052.734 511.719 L 1082.031 513.672 L 1052.734 515.625 L 1052.734 511.719 Z " style="fill: #dadad4; stroke: #dadad4;"/>
    <path d="M 1119.141 523.438 L 1128.906 529.297 L 1123.047 527.344 L 1119.141 523.438 Z " style="fill: #dadad4; stroke: #dadad4;"/>
    <path d="M 916.016 527.344 L 912.109 535.156 L 902.344 533.203 L 916.016 527.344 Z " style="fill: #dadad4; stroke: #dadad4;"/>
    <path d="M 1244.141 527.344 L 1248.047 535.156 L 1244.141 527.344 Z " style="fill: #dadad4; stroke: #dadad4;"/>
    <path d="M 740.234 531.25 L 728.516 546.875 L 740.234 531.25 Z " style="fill: #dadad4; stroke: #dadad4;"/>
    <path d="M 751.953 531.25 L 755.859 539.063 L 751.953 531.25 Z " style="fill: #dadad4; stroke: #dadad4;"/>
    <path d="M 876.953 531.25 L 886.719 533.203 L 876.953 535.156 L 876.953 531.25 Z " style="fill: #dadad4; stroke: #dadad4;"/>
    <path d="M 1119.141 531.25 L 1119.141 542.969 L 1109.375 541.016 L 1119.141 531.25 Z " style="fill: #dadad4; stroke: #dadad4;"/>
    <path d="M 1134.766 531.25 L 1140.625 541.016 L 1138.672 550.781 L 1128.906 544.922 L 1136.719 542.969 L 1134.766 531.25 Z " style="fill: #dadad4; stroke: #dadad4;"/>
    <path d="M 1226.563 531.25 L 1242.188 537.109 L 1246.094 544.922 L 1226.563 546.875 L 1226.563 531.25 Z " style="fill: #dadad4; stroke: #dadad4;"/>
    <path d="M 744.141 539.063 Q 754.395 535.807 750 548.828 L 751.953 554.688 L 732.422 558.594 L 738.281 548.828 L 744.141 539.063 Z " style="fill: #dadad4; stroke: #dadad4;"/>
    <path d="M 837.891 546.875 L 833.984 554.688 L 837.891 546.875 Z " style="fill: #dadad4; stroke: #dadad4;"/>
    <path d="M 1228.516 550.781 L 1250 554.688 L 1253.906 572.266 L 1248.047 570.313 L 1234.375 572.266 L 1253.906 578.125 L 1250 605.469 Q 1223.524 603.407 1210.938 583.984 L 1228.516 550.781 Z " style="fill: #dadad4; stroke: #dadad4;"/>
    <path d="M 740.234 558.594 Q 754.883 555.664 757.813 564.453 L 757.813 572.266 L 783.203 597.656 Q 791.992 594.727 789.063 603.516 L 773.438 628.906 L 742.188 644.531 L 734.375 626.953 L 757.813 611.328 L 751.953 609.375 L 734.375 613.281 L 726.563 589.844 L 742.188 583.984 L 726.563 582.031 Q 722.656 567.139 732.422 562.5 L 740.234 558.594 Z " style="fill: #dadad4; stroke: #dadad4;"/>
    <path d="M 833.984 558.594 L 843.75 564.453 L 833.984 570.313 L 833.984 558.594 Z " style="fill: #dadad4; stroke: #dadad4;"/>
    <path d="M 771.484 574.219 L 783.203 589.844 L 771.484 574.219 Z " style="fill: #dadad4; stroke: #dadad4;"/>
    <path d="M 814.453 578.125 L 798.828 597.656 L 792.969 595.703 L 814.453 578.125 Z " style="fill: #dadad4; stroke: #dadad4;"/>
    <path d="M 1205.078 585.938 L 1246.094 615.234 L 1236.328 636.719 L 1207.031 615.234 L 1191.406 595.703 L 1205.078 585.938 Z " style="fill: #dadad4; stroke: #dadad4;"/>
    <path d="M 763.672 640.625 L 765.625 650.391 L 759.766 660.156 L 751.953 648.438 L 763.672 640.625 Z " style="fill: #dadad4; stroke: #dadad4;"/>
    <path d="M 736.328 644.531 L 740.234 652.344 L 736.328 644.531 Z " style="fill: #dadad4; stroke: #dadad4;"/>
    <path d="M 1240.234 644.531 L 1232.422 656.25 L 1240.234 644.531 Z " style="fill: #dadad4; stroke: #dadad4;"/>
    <path d="M 1232.422 671.875 L 1228.516 679.688 L 1232.422 671.875 Z " style="fill: #dadad4; stroke: #dadad4;"/>
    <path d="M 1107.422 683.594 L 1103.516 691.406 L 1107.422 683.594 Z " style="fill: #dadad4; stroke: #dadad4;"/>
    <path d="M 869.141 695.313 L 873.047 703.125 L 869.141 695.313 Z " style="fill: #dadad4; stroke: #dadad4;"/>
    <path d="M 583.984 718.75 L 582.031 724.609 L 580.078 730.469 L 578.125 724.609 L 583.984 718.75 Z " style="fill: #dadad4; stroke: #dadad4;"/>
    <path d="M 599.609 718.75 L 603.516 726.563 L 599.609 718.75 Z " style="fill: #dadad4; stroke: #dadad4;"/>
    <path d="M 1376.953 718.75 L 1380.859 726.563 L 1376.953 718.75 Z " style="fill: #dadad4; stroke: #dadad4;"/>
    <path d="M 1244.141 722.656 L 1240.234 730.469 L 1244.141 722.656 Z " style="fill: #dadad4; stroke: #dadad4;"/>
    <path d="M 525.391 750 L 531.25 751.953 L 523.438 753.906 L 521.484 769.531 L 519.531 755.859 L 525.391 750 Z " style="fill: #dadad4; stroke: #dadad4;"/>
    <path d="M 1431.641 750 L 1441.406 755.859 L 1435.547 753.906 L 1431.641 750 Z " style="fill: #dadad4; stroke: #dadad4;"/>
    <path d="M 527.344 757.813 L 550.781 761.719 L 544.922 781.25 L 527.344 767.578 L 527.344 757.813 Z " style="fill: #dadad4; stroke: #dadad4;"/>
    <path d="M 650.391 757.813 L 654.297 765.625 L 650.391 757.813 Z " style="fill: #dadad4; stroke: #dadad4;"/>
    <path d="M 1310.547 757.813 L 1306.641 765.625 L 1310.547 757.813 Z " style="fill: #dadad4; stroke: #dadad4;"/>
    <path d="M 1419.922 757.813 Q 1438.721 751.302 1433.594 767.578 L 1416.016 781.25 L 1410.156 761.719 L 1419.922 757.813 Z " style="fill: #dadad4; stroke: #dadad4;"/>
    <path d="M 720.703 765.625 L 722.656 777.344 L 730.469 779.297 L 724.609 781.25 Q 714.844 777.344 720.703 765.625 Z " style="fill: #dadad4; stroke: #dadad4;"/>
    <path d="M 1255.859 769.531 L 1257.813 779.297 L 1248.047 785.156 L 1248.047 781.25 Q 1259.277 784.18 1255.859 769.531 Z " style="fill: #dadad4; stroke: #dadad4;"/>
    <path d="M 525.391 773.438 L 527.344 779.297 L 521.484 792.969 L 519.531 783.203 L 525.391 773.438 Z " style="fill: #dadad4; stroke: #dadad4;"/>
    <path d="M 677.734 773.438 L 687.5 779.297 L 681.641 777.344 L 677.734 773.438 Z " style="fill: #dadad4; stroke: #dadad4;"/>
    <path d="M 1263.672 785.156 L 1259.766 792.969 L 1263.672 785.156 Z " style="fill: #dadad4; stroke: #dadad4;"/>
    <path d="M 701.172 789.063 L 708.984 800.781 L 701.172 789.063 Z " style="fill: #dadad4; stroke: #dadad4;"/>
    <path d="M 525.391 796.875 L 529.297 804.688 L 525.391 796.875 Z " style="fill: #dadad4; stroke: #dadad4;"/>
    <path d="M 1404.297 832.031 L 1384.766 855.469 L 1404.297 832.031 Z " style="fill: #dadad4; stroke: #dadad4;"/>
    <path d="M 599.609 875 L 607.422 886.719 L 599.609 875 Z " style="fill: #dadad4; stroke: #dadad4;"/>
    <path d="M 1353.516 882.813 L 1349.609 890.625 L 1353.516 882.813 Z " style="fill: #dadad4; stroke: #dadad4;"/>
    <path d="M 619.141 890.625 L 623.047 898.438 L 619.141 890.625 Z " style="fill: #dadad4; stroke: #dadad4;"/>
    <path d="M 1330.078 898.438 L 1326.172 906.25 L 1330.078 898.438 Z " style="fill: #dadad4; stroke: #dadad4;"/>
    <path d="M 998.047 937.5 L 994.141 945.313 L 998.047 937.5 Z " style="fill: #dadad4; stroke: #dadad4;"/>
    <path d="M 822.266 972.656 L 832.031 990.234 L 828.125 990.234 L 822.266 976.563 L 816.406 978.516 L 822.266 972.656 Z " style="fill: #dadad4; stroke: #dadad4;"/>
    <path d="M 705.078 976.563 L 707.031 998.047 L 703.125 998.047 L 705.078 976.563 Z " style="fill: #dadad4; stroke: #dadad4;"/>
    <path d="M 1115.234 1011.719 Q 1124.023 1008.789 1121.094 1017.578 L 1113.281 1017.578 L 1111.328 1023.438 L 1109.375 1017.578 L 1115.234 1011.719 Z " style="fill: #dadad4; stroke: #dadad4;"/>
    <path d="M 1130.859 1011.719 L 1134.766 1019.531 L 1125 1017.578 L 1130.859 1011.719 Z " style="fill: #dadad4; stroke: #dadad4;"/>
    <path d="M 755.859 1101.563 L 767.578 1117.188 L 755.859 1101.563 Z " style="fill: #dadad4; stroke: #dadad4;"/>
    <path d="M 1177.734 1113.281 L 1173.828 1121.094 L 1177.734 1113.281 Z " style="fill: #dadad4; stroke: #dadad4;"/>
    <path d="M 1162.109 1128.906 L 1158.203 1136.719 L 1162.109 1128.906 Z " style="fill: #dadad4; stroke: #dadad4;"/>
    <path d="M 837.891 1140.625 L 833.984 1148.438 L 824.219 1146.484 L 837.891 1140.625 Z " style="fill: #dadad4; stroke: #dadad4;"/>
    <path d="M 1134.766 1140.625 L 1130.859 1148.438 L 1134.766 1140.625 Z " style="fill: #dadad4; stroke: #dadad4;"/>
    <path d="M 900.391 1148.438 L 916.016 1156.25 L 927.734 1148.438 L 935.547 1152.344 L 941.406 1150.391 Q 944.336 1159.18 935.547 1156.25 L 929.688 1158.203 L 927.734 1152.344 L 917.969 1158.203 L 923.828 1167.969 L 898.438 1164.063 L 894.531 1154.297 L 900.391 1148.438 Z " style="fill: #dadad4; stroke: #dadad4;"/>
    <path d="M 947.266 1156.25 L 960.938 1162.109 Q 964.193 1172.363 951.172 1167.969 L 951.172 1164.063 L 957.031 1162.109 Q 944.01 1162.435 947.266 1156.25 Z " style="fill: #dadad4; stroke: #dadad4;"/>
    <path d="M 966.797 1167.969 L 1000 1169.922 L 966.797 1171.875 L 966.797 1167.969 Z " style="fill: #dadad4; stroke: #dadad4;"/>
    <path d="M 966.797 1175.781 L 996.094 1177.734 L 966.797 1179.688 L 966.797 1175.781 Z " style="fill: #dadad4; stroke: #dadad4;"/>
    <path d="M 716.797 1226.563 L 712.891 1234.375 L 716.797 1226.563 Z " style="fill: #dadad4; stroke: #dadad4;"/>
    <path d="M 732.422 1226.563 L 742.188 1240.234 L 738.281 1240.234 L 732.422 1226.563 Z " style="fill: #dadad4; stroke: #dadad4;"/>
    <path d="M 759.766 1226.563 L 777.344 1228.516 L 759.766 1230.469 L 759.766 1226.563 Z " style="fill: #dadad4; stroke: #dadad4;"/>
    <path d="M 818.359 1226.563 L 822.266 1234.375 L 818.359 1226.563 Z " style="fill: #dadad4; stroke: #dadad4;"/>
    <path d="M 904.297 1226.563 L 900.391 1234.375 L 904.297 1226.563 Z " style="fill: #dadad4; stroke: #dadad4;"/>
    <path d="M 935.547 1234.375 L 937.5 1326.172 L 933.594 1326.172 L 935.547 1234.375 Z " style="fill: #dadad4; stroke: #dadad4;"/>
    <path d="M 1123.047 1234.375 L 1125 1294.922 L 1121.094 1294.922 L 1123.047 1234.375 Z " style="fill: #dadad4; stroke: #dadad4;"/>
    <path d="M 748.047 1246.094 L 750 1322.266 L 746.094 1322.266 L 748.047 1246.094 Z " style="fill: #dadad4; stroke: #dadad4;"/>
    <path d="M 1021.484 1246.094 L 1017.578 1253.906 L 1021.484 1246.094 Z " style="fill: #dadad4; stroke: #dadad4;"/>
    <path d="M 888.672 1250 L 884.766 1257.813 L 888.672 1250 Z " style="fill: #dadad4; stroke: #dadad4;"/>
    <path d="M 1154.297 1250 L 1171.875 1251.953 L 1152.344 1253.906 L 1152.344 1273.438 L 1162.109 1273.438 L 1162.109 1277.344 L 1148.438 1271.484 Q 1144.531 1253.906 1154.297 1250 Z " style="fill: #dadad4; stroke: #dadad4;"/>
    <path d="M 1205.078 1250 L 1207.031 1271.484 L 1203.125 1271.484 L 1205.078 1250 Z " style="fill: #dadad4; stroke: #dadad4;"/>
    <path d="M 919.922 1253.906 L 916.016 1261.719 L 919.922 1253.906 Z " style="fill: #dadad4; stroke: #dadad4;"/>
    <path d="M 1052.734 1253.906 L 1044.922 1265.625 L 1052.734 1253.906 Z " style="fill: #dadad4; stroke: #dadad4;"/>
    <path d="M 841.797 1257.813 L 845.703 1265.625 L 841.797 1257.813 Z " style="fill: #dadad4; stroke: #dadad4;"/>
    <path d="M 1267.578 1257.813 L 1263.672 1265.625 L 1267.578 1257.813 Z " style="fill: #dadad4; stroke: #dadad4;"/>
    <path d="M 912.109 1265.625 L 908.203 1273.438 L 912.109 1265.625 Z " style="fill: #dadad4; stroke: #dadad4;"/>
    <path d="M 849.609 1269.531 L 853.516 1277.344 L 849.609 1269.531 Z " style="fill: #dadad4; stroke: #dadad4;"/>
    <path d="M 1201.172 1277.344 L 1193.359 1289.063 L 1201.172 1277.344 Z " style="fill: #dadad4; stroke: #dadad4;"/>
    <path d="M 857.422 1281.25 L 861.328 1289.063 L 857.422 1281.25 Z " style="fill: #dadad4; stroke: #dadad4;"/>
    <path d="M 900.391 1281.25 L 896.484 1289.063 L 900.391 1281.25 Z " style="fill: #dadad4; stroke: #dadad4;"/>
    <path d="M 1275.391 1281.25 L 1277.344 1289.063 L 1257.813 1287.109 L 1275.391 1281.25 Z " style="fill: #dadad4; stroke: #dadad4;"/>
    <path d="M 865.234 1292.969 L 867.188 1330.078 L 871.094 1333.984 L 863.281 1330.078 L 865.234 1292.969 Z " style="fill: #dadad4; stroke: #dadad4;"/>
    <path d="M 892.578 1292.969 L 894.531 1330.078 L 886.719 1333.984 L 890.625 1330.078 L 892.578 1292.969 Z " style="fill: #dadad4; stroke: #dadad4;"/>
    <path d="M 1150.391 1300.781 L 1152.344 1330.078 L 1148.438 1330.078 L 1150.391 1300.781 Z " style="fill: #dadad4; stroke: #dadad4;"/>
    <path d="M 1197.266 1304.688 L 1201.172 1312.5 L 1197.266 1304.688 Z " style="fill: #dadad4; stroke: #dadad4;"/>
    <path d="M 1021.484 1316.406 L 1029.297 1328.125 L 1021.484 1316.406 Z " style="fill: #dadad4; stroke: #dadad4;"/>
    <path d="M 669.922 1320.313 L 673.828 1328.125 L 669.922 1320.313 Z " style="fill: #dadad4; stroke: #dadad4;"/>
    <path d="M 1095.703 1320.313 L 1087.891 1332.031 L 1095.703 1320.313 Z " style="fill: #dadad4; stroke: #dadad4;"/>
    <path d="M 1169.922 1320.313 L 1173.828 1328.125 L 1169.922 1320.313 Z " style="fill: #dadad4; stroke: #dadad4;"/>
    <path d="M 708.984 1324.219 L 701.172 1335.938 L 708.984 1324.219 Z " style="fill: #dadad4; stroke: #dadad4;"/>
    <path d="M 751.953 1328.125 L 755.859 1335.938 L 751.953 1328.125 Z " style="fill: #dadad4; stroke: #dadad4;"/>
    <path d="M 1314.453 1328.125 L 1310.547 1335.938 L 1314.453 1328.125 Z " style="fill: #dadad4; stroke: #dadad4;"/>
    <path d="M 1056.641 1335.938 L 1066.406 1337.891 L 1056.641 1339.844 L 1056.641 1335.938 Z " style="fill: #dadad4; stroke: #dadad4;"/>
    <path d="M 1021.484 492.188 L 1046.875 496.094 L 1042.969 515.625 Q 1106.547 507.41 1136.719 537.109 Q 1139.648 545.898 1130.859 542.969 L 1130.859 546.875 Q 1170.712 557.803 1197.266 582.031 L 1214.844 564.453 L 1218.75 541.016 L 1228.516 523.438 L 1250 537.109 L 1261.719 568.359 L 1261.719 591.797 L 1250 630.859 L 1230.469 654.297 L 1230.469 666.016 L 1230.469 681.641 L 1246.094 720.703 Q 1232.422 726.563 1242.188 732.422 L 1253.906 763.672 L 1253.906 781.25 L 1246.094 783.203 L 1251.953 796.875 L 1275.391 777.344 L 1287.109 777.344 L 1322.266 753.906 L 1330.078 753.906 L 1351.563 740.234 L 1365.234 718.75 Q 1380.859 716.797 1382.813 728.516 L 1384.766 742.188 Q 1396.317 730.301 1419.922 730.469 L 1431.641 753.906 L 1441.406 759.766 L 1433.594 775.391 L 1441.406 787.109 L 1427.734 804.688 L 1414.063 814.453 L 1410.156 826.172 L 1357.422 882.813 Q 1314.282 916.455 1257.813 933.594 L 1261.719 964.844 L 1253.906 966.797 L 1253.906 1005.859 L 1238.281 1050.781 Q 1222.168 1044.271 1226.563 1060.547 Q 1216.797 1091.797 1193.359 1109.375 Q 1174.805 1106.445 1171.875 1119.141 L 1166.016 1128.906 L 1150.391 1136.719 Q 1144.531 1126.953 1138.672 1140.625 Q 1112.142 1168.783 1060.547 1171.875 L 1044.922 1167.969 L 1017.578 1175.781 L 1009.766 1171.875 L 1005.859 1175.781 L 955.078 1175.781 L 935.547 1167.969 Q 928.711 1178.711 904.297 1171.875 Q 864.521 1162.823 837.891 1140.625 L 822.266 1144.531 L 787.109 1117.188 L 775.391 1121.094 Q 740.234 1097.656 728.516 1050.781 L 718.75 1054.688 L 707.031 1013.672 L 703.125 933.594 Q 635.764 913.959 589.844 869.141 L 585.938 855.469 L 554.688 830.078 L 537.109 804.688 L 523.438 794.922 L 527.344 775.391 L 523.438 753.906 L 535.156 748.047 Q 532.227 733.398 541.016 730.469 Q 566.523 731.492 578.125 742.188 L 587.891 718.75 Q 607.422 716.797 609.375 732.422 L 619.141 750 L 638.672 753.906 Q 657.552 774.089 689.453 781.25 L 724.609 812.5 L 730.469 777.344 Q 714.844 782.715 722.656 755.859 L 746.094 712.891 L 742.188 701.172 L 757.813 669.922 L 726.563 630.859 Q 714.355 609.863 718.75 572.266 Q 723.145 543.457 744.141 531.25 L 757.813 541.016 Q 761.23 574.707 783.203 589.844 L 798.828 597.656 Q 813.965 573.73 843.75 564.453 L 832.031 556.641 Q 854.246 531.981 900.391 531.25 L 912.109 535.156 L 935.547 507.813 L 953.125 503.906 L 955.078 519.531 L 986.328 500 L 1021.484 492.188 Z M 1014 500 L 986 508 L 941 535 L 945 525 L 943 512 L 936 516 L 916 543 L 908 539 L 877 539 L 840 557 L 863 564 Q 825 573 805 600 L 816 604 L 791 621 L 773 643 L 783 645 L 789 643 Q 763 668 750 703 L 760 699 L 766 701 Q 735 727 727 770 L 742 766 L 730 799 Q 726 821 738 826 L 736 832 L 705 805 L 689 789 L 686 793 L 650 770 L 643 770 L 627 758 L 623 770 L 602 732 Q 594 715 586 729 L 586 750 L 576 750 Q 552 761 549 793 L 547 785 L 527 785 L 527 791 L 545 805 L 559 826 Q 579 855 613 869 L 605 873 Q 643 914 709 926 L 715 924 L 707 947 Q 703 962 715 957 L 711 975 L 711 1006 L 721 1039 L 729 1027 Q 734 1067 754 1092 L 781 1113 L 783 1098 L 793 1115 L 826 1141 L 830 1125 Q 861 1162 924 1168 L 920 1156 L 967 1172 Q 1005 1177 1021 1160 Q 1032 1158 1027 1168 L 1037 1168 L 1068 1148 Q 1077 1146 1074 1154 L 1064 1160 L 1064 1164 Q 1129 1158 1154 1113 L 1158 1125 L 1189 1086 L 1193 1102 L 1219 1064 L 1223 1029 L 1229 1023 L 1232 1043 L 1246 1018 L 1246 959 L 1242 947 L 1254 951 L 1250 924 L 1256 926 Q 1319 911 1359 873 L 1348 869 L 1373 855 Q 1398 840 1410 811 L 1424 801 L 1434 785 Q 1417 781 1412 793 Q 1410 768 1393 758 Q 1382 760 1387 750 L 1379 750 Q 1382 731 1369 723 L 1344 764 L 1336 768 Q 1339 759 1330 762 Q 1324 775 1318 766 L 1279 793 L 1271 789 L 1232 824 Q 1222 827 1227 816 L 1246 803 L 1238 775 L 1236 770 L 1250 773 L 1223 713 L 1229 711 L 1238 717 Q 1231 683 1207 666 L 1217 664 L 1227 670 Q 1216 622 1182 598 Q 1173 601 1176 592 L 1188 584 L 1139 555 L 1111 551 L 1105 545 L 1129 537 L 1111 527 L 1076 520 Q 1047 516 1033 527 L 1023 525 L 1039 506 Q 1041 494 1014 500 Z M 1227 531 L 1227 547 L 1246 545 L 1242 537 L 1227 531 Z M 744 539 L 734 553 L 752 555 L 750 549 Q 754 536 744 539 Z M 1229 551 L 1223 557 Q 1218 570 1229 566 L 1229 570 L 1221 566 L 1211 584 Q 1224 603 1250 605 L 1254 578 L 1234 572 L 1248 570 L 1254 572 L 1250 555 L 1229 551 Z M 740 559 L 732 563 Q 723 567 727 582 Q 744 585 752 574 Q 762 577 758 564 Q 755 556 740 559 Z M 760 574 L 727 590 L 734 613 L 756 609 L 773 596 L 734 627 L 742 645 L 773 629 L 789 598 L 760 574 Z M 1205 586 L 1191 596 L 1207 615 L 1236 637 L 1246 615 L 1240 617 L 1242 611 Q 1218 604 1205 586 Z M 764 641 L 752 648 L 760 660 L 766 650 L 764 641 Z M 539 738 L 553 758 L 574 748 Q 563 735 539 738 Z M 1404 738 L 1387 748 L 1400 758 Q 1416 760 1418 748 Q 1423 732 1404 738 Z M 527 758 L 527 768 L 545 781 L 551 762 L 527 758 Z M 1420 758 L 1410 762 L 1416 781 L 1434 768 Q 1439 751 1420 758 Z " style="fill: #73555c; stroke: #73555c;"/>
    <path d="M 876.953 601.563 L 886.719 603.516 L 873.047 613.281 L 871.094 607.422 L 876.953 601.563 Z " style="fill: #73555c; stroke: #73555c;"/>
    <path d="M 1123.047 601.563 L 1132.813 605.469 L 1130.859 613.281 L 1123.047 601.563 Z " style="fill: #73555c; stroke: #73555c;"/>
    <path d="M 861.328 675.781 Q 881.348 673.34 886.719 685.547 L 890.625 705.078 L 876.953 726.563 Q 852.539 731.445 847.656 716.797 Q 842.529 684.326 861.328 675.781 Z M 867 688 L 867 697 Q 873 709 879 697 Q 883 681 867 688 Z " style="fill: #73555c; stroke: #73555c;"/>
    <path d="M 1103.516 675.781 Q 1128.906 671.875 1132.813 689.453 Q 1139.648 719.727 1123.047 726.563 Q 1098.633 731.445 1093.75 716.797 L 1089.844 697.266 L 1103.516 675.781 Z M 1107 684 L 1102 689 Q 1097 704 1111 699 Q 1125 691 1107 684 Z " style="fill: #73555c; stroke: #73555c;"/>
    <path d="M 955.078 726.563 L 970.703 746.094 L 984.375 742.188 L 988.281 726.563 Q 1000 721.68 996.094 736.328 L 1013.672 746.094 Q 1026.367 741.536 1023.438 726.563 Q 1036.458 721.436 1031.25 740.234 Q 1028.32 756.836 1005.859 753.906 L 990.234 746.094 L 970.703 753.906 L 957.031 744.141 L 955.078 726.563 Z " style="fill: #73555c; stroke: #73555c;"/>
    <path d="M 1205.078 839.844 L 1207.031 853.516 L 1203.125 853.516 L 1205.078 839.844 Z " style="fill: #73555c; stroke: #73555c;"/>
    <path d="M 1216.797 839.844 L 1218.75 849.609 L 1214.844 849.609 L 1216.797 839.844 Z " style="fill: #73555c; stroke: #73555c;"/>
    <path d="M 1345.703 847.656 L 1341.797 855.469 L 1345.703 847.656 Z " style="fill: #73555c; stroke: #73555c;"/>
    <path d="M 736.328 976.563 L 738.281 994.141 L 730.469 990.234 L 736.328 976.563 Z " style="fill: #73555c; stroke: #73555c;"/>
    <path d="M 822.266 976.563 L 828.125 990.234 L 820.313 986.328 L 822.266 976.563 Z " style="fill: #73555c; stroke: #73555c;"/>
    <path d="M 1134.766 1007.813 L 1136.719 1013.672 L 1126.953 1027.344 L 1125 1021.484 L 1134.766 1007.813 Z " style="fill: #73555c; stroke: #73555c;"/>
    <path d="M 826.172 1062.5 L 835.938 1080.078 L 828.125 1082.031 L 826.172 1062.5 Z " style="fill: #73555c; stroke: #73555c;"/>
    <path d="M 841.797 1070.313 L 847.656 1080.078 L 839.844 1076.172 L 841.797 1070.313 Z " style="fill: #73555c; stroke: #73555c;"/>
    <path d="M 654.297 1226.563 L 667.969 1232.422 L 683.594 1287.109 L 693.359 1300.781 L 710.938 1236.328 L 720.703 1226.563 Q 736.328 1224.609 738.281 1236.328 Q 732.236 1300.595 697.266 1335.938 Q 679.688 1339.844 675.781 1330.078 L 640.625 1240.234 L 644.531 1230.469 L 654.297 1226.563 Z " style="fill: #73555c; stroke: #73555c;"/>
    <path d="M 779.297 1226.563 L 814.453 1226.563 L 824.219 1236.328 Q 827.148 1250.977 818.359 1253.906 L 777.344 1253.906 L 777.344 1269.531 L 810.547 1269.531 L 812.5 1275.391 L 816.406 1283.203 L 812.5 1292.969 L 777.344 1292.969 L 777.344 1308.594 Q 809.668 1303.711 824.219 1312.5 Q 829.102 1330.469 818.359 1335.938 L 759.766 1335.938 L 750 1326.172 L 750 1236.328 L 755.859 1230.469 Q 774.414 1235.352 779.297 1226.563 Z " style="fill: #73555c; stroke: #73555c;"/>
    <path d="M 845.703 1226.563 L 859.375 1232.422 L 880.859 1265.625 L 908.203 1226.563 L 925.781 1236.328 L 921.875 1251.953 L 890.625 1294.922 L 890.625 1330.078 L 884.766 1335.938 Q 870.117 1338.867 867.188 1330.078 L 867.188 1294.922 L 835.938 1251.953 L 832.031 1236.328 L 845.703 1226.563 Z " style="fill: #73555c; stroke: #73555c;"/>
    <path d="M 947.266 1226.563 L 960.938 1230.469 L 964.844 1240.234 L 964.844 1308.594 L 1001.953 1308.594 L 1007.813 1314.453 Q 1011.719 1332.031 1001.953 1335.938 L 943.359 1335.938 L 937.5 1330.078 L 937.5 1232.422 L 943.359 1230.469 L 947.266 1226.563 Z " style="fill: #73555c; stroke: #73555c;"/>
    <path d="M 1052.734 1226.563 L 1072.266 1226.563 L 1101.563 1248.047 Q 1113.281 1263.672 1109.375 1294.922 Q 1103.376 1320.173 1083.984 1332.031 Q 1071.615 1341.146 1044.922 1335.938 L 1019.531 1314.453 Q 1007.813 1298.828 1011.719 1267.578 L 1033.203 1234.375 L 1052.734 1226.563 Z M 1053 1254 L 1039 1271 L 1043 1299 Q 1047 1313 1068 1309 L 1082 1291 L 1078 1264 Q 1074 1250 1053 1254 Z " style="fill: #73555c; stroke: #73555c;"/>
    <path d="M 1138.672 1226.563 Q 1181.934 1220.41 1199.219 1240.234 L 1203.125 1275.391 L 1179.688 1294.922 L 1207.031 1312.5 L 1210.938 1326.172 Q 1207.031 1339.844 1185.547 1335.938 L 1148.438 1302.734 L 1148.438 1335.938 L 1125 1335.938 L 1121.094 1298.828 L 1125 1294.922 L 1125 1230.469 L 1138.672 1226.563 Z M 1154 1250 L 1148 1256 Q 1145 1273 1154 1277 L 1170 1273 Q 1179 1271 1176 1256 Q 1172 1246 1154 1250 Z " style="fill: #73555c; stroke: #73555c;"/>
    <path d="M 1259.766 1226.563 Q 1279.785 1224.121 1285.156 1236.328 L 1316.406 1326.172 Q 1313.477 1338.867 1294.922 1335.938 L 1285.156 1312.5 L 1251.953 1312.5 L 1246.094 1318.359 Q 1249.023 1333.008 1240.234 1335.938 L 1218.75 1332.031 L 1226.563 1287.109 L 1250 1230.469 L 1259.766 1226.563 Z M 1268 1258 L 1258 1275 L 1258 1289 L 1277 1289 L 1268 1258 Z " style="fill: #73555c; stroke: #73555c;"/>
  </g>
</svg>